<svg width="23" height="24" viewBox="0 0 23 24" fill="none" xmlns="http://www.w3.org/2000/svg">
<g clip-path="url(#clip0_458_23087)">
<path d="M11.9713 0.584961C12.4583 0.674141 12.9535 0.73181 13.4303 0.858445C16.4541 1.66166 18.6979 4.3638 18.9702 7.48093C19.1378 9.40245 18.6152 11.1349 17.6057 12.7473C16.7329 14.1415 15.6877 15.4066 14.6872 16.7057C14.5248 16.9161 14.3608 17.126 14.1788 17.3608C14.5498 17.4346 14.8952 17.4964 15.2377 17.5731C16.0789 17.7622 16.9042 18.0101 17.6426 18.4667C17.9725 18.6706 18.293 18.9173 18.5534 19.2027C19.1675 19.8757 19.1509 20.7051 18.5534 21.3971C18.1616 21.8507 17.661 22.1504 17.1235 22.3947C16.0326 22.89 14.8756 23.1337 13.6949 23.2794C13.2549 23.3335 12.8126 23.3704 12.372 23.415C11.749 23.415 11.1259 23.415 10.5028 23.415C10.0617 23.3704 9.61937 23.3353 9.18001 23.2788C7.82923 23.1058 6.49986 22.84 5.30248 22.1551C4.92376 21.9381 4.56466 21.648 4.27513 21.3222C3.72162 20.6997 3.73826 19.9209 4.2567 19.2681C4.69962 18.711 5.30129 18.3787 5.941 18.107C6.8114 17.7366 7.72638 17.5279 8.70022 17.3716C8.63304 17.2788 8.58072 17.2051 8.52662 17.1325C7.53851 15.8246 6.52483 14.535 5.56883 13.2033C4.78464 12.1105 4.22994 10.9036 3.9844 9.56119C3.24243 5.50471 5.90474 1.5487 9.94279 0.733594C10.246 0.672357 10.5534 0.633713 10.859 0.584961C11.2294 0.584961 11.6003 0.584961 11.9713 0.584961ZM11.4357 19.5154C11.4814 19.4584 11.5094 19.4251 11.5361 19.3906C12.5891 18.0095 13.6539 16.6373 14.6907 15.2443C15.4743 14.1914 16.2692 13.1421 16.9725 12.0362C17.922 10.5422 18.2966 8.89532 18.0302 7.11708C17.4297 3.10815 13.2347 0.520157 9.39166 1.7984C5.78345 2.99816 3.8863 6.85786 5.13244 10.4601C5.53078 11.6117 6.18536 12.6195 6.91128 13.5796C8.0617 15.101 9.23708 16.6034 10.3976 18.1171C10.7448 18.5695 11.0783 19.0333 11.4357 19.5154ZM11.1134 22.5244C12.8162 22.5303 14.4642 22.3787 16.0587 21.8507C16.6872 21.6427 17.2995 21.3924 17.787 20.9209C18.2234 20.4988 18.2282 20.0802 17.7805 19.6754C17.5522 19.4685 17.2912 19.2865 17.0183 19.1427C15.9737 18.5921 14.834 18.3626 13.677 18.2081C13.6009 18.198 13.4844 18.2699 13.4327 18.3389C12.9107 19.0327 12.3976 19.7336 11.8839 20.434C11.5831 20.8442 11.287 20.8436 10.988 20.4328C10.4761 19.7312 9.95825 19.0339 9.44933 18.3305C9.36848 18.2188 9.28465 18.1783 9.15147 18.2069C8.46419 18.3549 7.76859 18.4691 7.09083 18.6516C6.38036 18.8424 5.69784 19.1213 5.13898 19.626C4.62887 20.0868 4.61579 20.5446 5.15622 20.9738C5.51056 21.2556 5.91901 21.4928 6.33756 21.6653C7.8762 22.2972 9.50224 22.4726 11.1134 22.5244Z" fill="#52B694"/>
<path d="M14.5524 8.16453C14.5524 9.88154 13.1564 11.2829 11.443 11.2864C9.72061 11.2894 8.31811 9.88213 8.32227 8.15443C8.32644 6.43861 9.72596 5.04325 11.4424 5.04443C13.154 5.04503 14.5524 6.44812 14.5524 8.16453ZM13.6618 8.15799C13.6576 6.93385 12.657 5.93504 11.4358 5.93623C10.2058 5.93683 9.20456 6.94931 9.21348 8.18356C9.2218 9.40592 10.2289 10.4012 11.4501 10.3946C12.6695 10.3881 13.6659 9.38035 13.6618 8.15799Z" fill="#52B694"/>
<path d="M17.2223 7.95798C17.2223 8.043 17.2235 8.10246 17.2223 8.16191C17.2157 8.44788 17.0356 8.64764 16.7829 8.65121C16.5332 8.65477 16.3638 8.45085 16.3281 8.1732C16.2621 7.66012 16.2342 7.1298 16.0772 6.64348C15.6004 5.16428 14.6057 4.14763 13.161 3.57629C12.8947 3.47106 12.7651 3.30518 12.7871 3.08937C12.8186 2.77843 13.1105 2.61077 13.4327 2.72789C14.3644 3.06796 15.1569 3.61434 15.8043 4.36583C16.6991 5.40388 17.1592 6.61613 17.2223 7.95798Z" fill="#52B694"/>
<path d="M11.9221 2.82302C11.9167 3.06737 11.7009 3.2701 11.4577 3.25881C11.2187 3.24751 11.0315 3.04715 11.0362 2.80637C11.041 2.55726 11.2503 2.35928 11.497 2.37058C11.7318 2.38128 11.9274 2.58937 11.9221 2.82302Z" fill="#52B694"/>
</g>
<defs>
<clipPath id="clip0_458_23087">
<rect width="22.83" height="22.83" fill="white" transform="translate(0 0.584961)"/>
</clipPath>
</defs>
</svg>
