<svg width="20" height="20" viewBox="0 0 20 20" fill="none" xmlns="http://www.w3.org/2000/svg">
<path d="M0.186146 0.184893C0.0979922 0.273195 0.0377178 0.385453 0.012814 0.507723C-0.0120897 0.629993 -0.000525709 0.756886 0.0460668 0.87264L7.45624 19.3998C7.52154 19.5629 7.63059 19.7049 7.77138 19.8101C7.91217 19.9153 8.07924 19.9795 8.2542 19.9959C8.42917 20.0122 8.60525 19.9799 8.76306 19.9026C8.92087 19.8253 9.0543 19.706 9.14865 19.5577L13.1957 13.196L19.5565 9.14852C19.7051 9.05425 19.8248 8.92076 19.9023 8.76278C19.9798 8.6048 20.0122 8.42847 19.9959 8.25325C19.9795 8.07802 19.9151 7.91072 19.8097 7.76979C19.7043 7.62887 19.5621 7.5198 19.3986 7.45463L0.873804 0.0460703C0.758065 -0.000527956 0.631189 -0.0120919 0.508934 0.0128149C0.38668 0.0377217 0.274437 0.0980017 0.186146 0.186167V0.184893ZM11.9248 12.8241L8.40878 18.349L2.38157 3.27975L11.9248 12.8241ZM3.28189 2.37931L18.3493 8.40728L12.8238 11.9224L3.28062 2.37931H3.28189Z" fill="#8D8F95"/>
</svg>
